<?xml version="1.0" encoding="UTF-8"?>
<svg viewBox="0 0 416.89 199.97" xmlns="http://www.w3.org/2000/svg">
  <defs>
    <style>
      .cls-1,
      .cls-4 {
        fill: #222863;
      }

      .cls-2,
      .cls-3 {
        fill: #4592c3;
      }

      .cls-3 {
        stroke: #4592c3;
      }

      .cls-3,
      .cls-4 {
        stroke-miterlimit: 10;
        stroke-width: 0.25px;
      }

      .cls-4 {
        stroke: #222863;
      }
    </style>
  </defs>
  <g data-name="Capa 2">
    <g data-name="Capa 3">
      <rect class="cls-1" x="203.6" y="33.66" width="5.65" height="5.65" />
      <rect class="cls-1" x="203.6" y="43.17" width="5.65" height="5.64" />
      <rect class="cls-1" x="213.12" y="33.66" width="5.64" height="5.65" />
      <rect class="cls-1" x="213.12" y="43.17" width="5.64" height="5.64" />
      <path class="cls-1" d="M169.65,52.71h9.18L211.2,14.76l32.07,39C264.6,42.36,301.8,4.68,253.2,0c0,0,37,7.8-8.28,43.08L211.14,2.94Z" />
      <path class="cls-2" d="m192.42 12.72c2.87-1.15 5.72-2.18 8.53-3.11l-7.34 8.93c-25.69 11.1-42.61 28.29-38.25 39.26 1.08 2.68 3.34 4.76 6.52 6.22-7.69-1-13.1-3.76-14.95-8.37-4.71-11.78 15.66-31 45.49-42.93z" />
      <path class="cls-2" d="m255.36 18.64a6.28 6.28 0 0 0-0.25-0.73c-3.17-7.93-16.67-10.53-33.85-7.69l-3.91-4.89c19.17-3.61 34.28-1.25 37.63 7.12a10.42 10.42 0 0 1 0.38 6.19z" />
      <path class="cls-2" d="m235.09 50.58 4.27 6.09a200.13 200.13 0 0 1-28.76 11.69c-37.92 12.64-61.6 9.58-69.93-1.61 12.51 8 33.78 7.91 68.13-4.33a171.78 171.78 0 0 0 26.29-11.84z" />
      <path class="cls-1" d="M42.12,188c0,.84,0,1.64.11,2.38a5,5,0,0,0,.6,1.95,3.48,3.48,0,0,0,1.5,1.32,6.43,6.43,0,0,0,2.79.49,7.28,7.28,0,0,0,2.93-.5,4.07,4.07,0,0,0,1.72-1.4,5.11,5.11,0,0,0,.81-2.09,15.33,15.33,0,0,0,.21-2.61V174.76H49.86v-1.18H57v1.18H54.11v12.59a16.13,16.13,0,0,1-.33,3.46,5.82,5.82,0,0,1-1.15,2.51,5.22,5.22,0,0,1-2.26,1.53,10.84,10.84,0,0,1-3.62.52,11.62,11.62,0,0,1-3.38-.43A5.44,5.44,0,0,1,41,193.62a5.3,5.3,0,0,1-1.34-2.27,11.08,11.08,0,0,1-.43-3.29v-13.3H36.34v-1.18h8.71v1.18H42.12Z" />
      <path class="cls-1" d="M70.62,195H69.8l-8.87-13.75h0v12.77h1.85v.82H57.91v-.82H60V180.79H57.91V180h4.58l7.16,11.09h0V180.79h-2V180h5v.82H70.62Z" />
      <path class="cls-1" d="M85.62,186.73H87c.46,0,.84,0,1.15,0a1.38,1.38,0,0,0,.74-.3,1.52,1.52,0,0,0,.43-.74,7.86,7.86,0,0,0,.2-1.44h.73v6.08h-.73a9,9,0,0,0-.17-1.48,1.67,1.67,0,0,0-.4-.81,1.29,1.29,0,0,0-.75-.35,7.89,7.89,0,0,0-1.2-.07H85.62v6.48h2.71q.81,0,1.41-.06a4.49,4.49,0,0,0,1.06-.23,2.29,2.29,0,0,0,.77-.46,2.74,2.74,0,0,0,.56-.77,5.29,5.29,0,0,0,.4-1.15c.11-.45.21-1,.31-1.6h.71l-.2,5.09H81.57v-.82h2.05V180.79H81.57V180H93.09l.21,4.11h-.72a9,9,0,0,0-.38-1.66,2.36,2.36,0,0,0-.63-1,2.13,2.13,0,0,0-1.06-.49,8.3,8.3,0,0,0-1.64-.13H85.62Z" />
      <path class="cls-1" d="M108.57,194.05h1.82v.82h-6.12v-.82h1.89l-3.63-5.54-4.18,5.54h1.82v.82H95.32v-.82h1.86l4.81-6.36-4.51-6.9H95.66V180h6.11v.82H99.89l3.46,5.3,4-5.3h-1.76V180h4.69v.82h-1.76l-4.62,6.13Z" />
      <path class="cls-1" d="M117.71,180a11.05,11.05,0,0,1,2.86.31,5.15,5.15,0,0,1,1.87.85,3.18,3.18,0,0,1,1,1.32,4.32,4.32,0,0,1,.31,1.67,5,5,0,0,1-.28,1.68,3.68,3.68,0,0,1-1,1.47,5.25,5.25,0,0,1-1.91,1,9.86,9.86,0,0,1-3,.39h-1.42v5.35h2.16v.82h-6.21v-.82h2V180.79h-2V180Zm-1.55,7.91h1.27a9.29,9.29,0,0,0,2-.18,2.88,2.88,0,0,0,1.29-.61,2.42,2.42,0,0,0,.69-1.15,6.38,6.38,0,0,0,.21-1.78,6.08,6.08,0,0,0-.16-1.51,2.11,2.11,0,0,0-.6-1.05,2.64,2.64,0,0,0-1.23-.61,8.52,8.52,0,0,0-2-.2h-1.43Z" />
      <path class="cls-1" d="M129.18,186.73h1.34c.46,0,.84,0,1.15,0a1.35,1.35,0,0,0,.74-.3,1.52,1.52,0,0,0,.43-.74,7.07,7.07,0,0,0,.2-1.44h.73v6.08H133a9,9,0,0,0-.17-1.48,1.67,1.67,0,0,0-.4-.81,1.26,1.26,0,0,0-.74-.35,8,8,0,0,0-1.21-.07h-1.34v6.48h2.72c.53,0,1,0,1.4-.06a4.38,4.38,0,0,0,1.06-.23,2.19,2.19,0,0,0,.77-.46,2.55,2.55,0,0,0,.56-.77,5.29,5.29,0,0,0,.4-1.15c.11-.45.21-1,.31-1.6h.71l-.2,5.09H125.13v-.82h2.05V180.79h-2.05V180h11.52l.21,4.11h-.72a9,9,0,0,0-.38-1.66,2.36,2.36,0,0,0-.63-1,2.13,2.13,0,0,0-1.06-.49,8.3,8.3,0,0,0-1.64-.13h-3.25Z" />
      <path class="cls-1" d="M145,180a12.64,12.64,0,0,1,2.75.25,5.37,5.37,0,0,1,1.8.69,2.65,2.65,0,0,1,1,1.1,3.43,3.43,0,0,1,.29,1.42,3.9,3.9,0,0,1-.21,1.28,3.31,3.31,0,0,1-.63,1.09,3.88,3.88,0,0,1-1,.85,5.06,5.06,0,0,1-1.48.54v0a3.35,3.35,0,0,1,1.16.48,2.5,2.5,0,0,1,.74.78,3.81,3.81,0,0,1,.44,1c.11.4.2.83.28,1.3s.16.93.23,1.33a5,5,0,0,0,.26,1,1.71,1.71,0,0,0,.44.68,1.18,1.18,0,0,0,.79.24h.26l.37,0v.79l-.38.07-.41,0-.41,0h-.35a4.09,4.09,0,0,1-1.41-.19,1.53,1.53,0,0,1-.77-.59,2.52,2.52,0,0,1-.39-1c-.07-.4-.15-.88-.21-1.44-.11-.8-.21-1.48-.31-2a4.64,4.64,0,0,0-.43-1.32,1.63,1.63,0,0,0-.75-.7,3.22,3.22,0,0,0-1.28-.21h-1.93v6.53h2.15v.82h-6.2v-.82h2V180.79h-2V180Zm-1.6,6.73h1.36a7.91,7.91,0,0,0,1.85-.19,2.7,2.7,0,0,0,1.2-.58,2.13,2.13,0,0,0,.65-1,4.9,4.9,0,0,0,.19-1.47,4.4,4.4,0,0,0-.15-1.23,1.66,1.66,0,0,0-.57-.82,2.71,2.71,0,0,0-1.15-.47,9.79,9.79,0,0,0-1.9-.15h-1.48Z" />
      <path class="cls-1" d="M153.79,180h12l.25,4.42h-.72a11.24,11.24,0,0,0-.37-1.86,2.57,2.57,0,0,0-.64-1.09,2.29,2.29,0,0,0-1.07-.52,8.52,8.52,0,0,0-1.66-.13h-.83v13.26H163v.82h-6.51v-.82h2.25V180.79H158c-.45,0-.84,0-1.18.05a3.74,3.74,0,0,0-.9.2,1.83,1.83,0,0,0-.66.4,2.13,2.13,0,0,0-.47.65,5.43,5.43,0,0,0-.34,1c-.09.37-.17.82-.24,1.33h-.72Z" />
      <path class="cls-1" d="M168.25,187.56a10.21,10.21,0,0,1,.5-3.3,7.47,7.47,0,0,1,1.39-2.5,5.91,5.91,0,0,1,2.13-1.58,6.54,6.54,0,0,1,2.71-.56,6.37,6.37,0,0,1,2.65.54,5.84,5.84,0,0,1,2.05,1.53A7.25,7.25,0,0,1,181,184.1a9.86,9.86,0,0,1,.47,3.17,10.4,10.4,0,0,1-.46,3.18,7.35,7.35,0,0,1-1.31,2.52,6,6,0,0,1-2.11,1.65,6.9,6.9,0,0,1-5.49.06,5.7,5.7,0,0,1-2.05-1.52,7.05,7.05,0,0,1-1.32-2.42A10.21,10.21,0,0,1,168.25,187.56Zm2.23-.06a17.78,17.78,0,0,0,.15,2.47,9.55,9.55,0,0,0,.42,1.83,4.38,4.38,0,0,0,.66,1.26,3.11,3.11,0,0,0,.87.8,3.21,3.21,0,0,0,1,.42,5.65,5.65,0,0,0,1.19.12,5.79,5.79,0,0,0,1.19-.12,3.36,3.36,0,0,0,1.06-.42A3.12,3.12,0,0,0,178,193a4.6,4.6,0,0,0,.69-1.29,10.16,10.16,0,0,0,.43-1.87,17,17,0,0,0,.16-2.53,17.78,17.78,0,0,0-.15-2.47,9.55,9.55,0,0,0-.42-1.83,4.31,4.31,0,0,0-.66-1.27,3.31,3.31,0,0,0-.87-.81,3.47,3.47,0,0,0-1-.41,5.72,5.72,0,0,0-1.19-.12,5.81,5.81,0,0,0-1.2.12,3.69,3.69,0,0,0-1.07.43,3.07,3.07,0,0,0-.89.81,4.81,4.81,0,0,0-.68,1.3,9.81,9.81,0,0,0-.44,1.86A18.87,18.87,0,0,0,170.48,187.5Z" />
      <path class="cls-1" d="M185.1,199.13c.35-.31.68-.63,1-.95a6.82,6.82,0,0,0,.81-1,4.7,4.7,0,0,0,.56-1.06,3.18,3.18,0,0,0,.2-1.16,2.24,2.24,0,0,0,0-.38c0-.12,0-.25,0-.38h-.09a1.6,1.6,0,0,1-.7.77,2,2,0,0,1-1,.24,1.93,1.93,0,0,1-.67-.12,1.62,1.62,0,0,1-.58-.34,1.83,1.83,0,0,1-.42-.56,1.74,1.74,0,0,1-.16-.77,2.29,2.29,0,0,1,.13-.76,2.36,2.36,0,0,1,.39-.69,2.21,2.21,0,0,1,.66-.5,2,2,0,0,1,.9-.2,2.64,2.64,0,0,1,1.05.22,2.88,2.88,0,0,1,.92.64,3.25,3.25,0,0,1,.67,1.06,3.8,3.8,0,0,1,.26,1.43,5.26,5.26,0,0,1-.79,2.72,9.69,9.69,0,0,1-2.35,2.62,3.23,3.23,0,0,1-.43-.38A2.36,2.36,0,0,1,185.1,199.13Z" />
      <path class="cls-1" d="M199.66,190.41h.72a6.23,6.23,0,0,0,.45,2,3.59,3.59,0,0,0,.83,1.24,2.83,2.83,0,0,0,1.14.65,5,5,0,0,0,1.36.19,4.29,4.29,0,0,0,1.47-.22,2.66,2.66,0,0,0,1-.6,2.24,2.24,0,0,0,.57-.92,3.7,3.7,0,0,0,.18-1.18,2.81,2.81,0,0,0-.27-1.32,2.51,2.51,0,0,0-.74-.88,4.43,4.43,0,0,0-1.14-.63c-.45-.18-.94-.37-1.47-.56s-1-.39-1.52-.6a5.12,5.12,0,0,1-1.28-.79,3.5,3.5,0,0,1-.88-1.16,4,4,0,0,1-.32-1.69,4.7,4.7,0,0,1,.31-1.75,3.55,3.55,0,0,1,.91-1.34,4,4,0,0,1,1.5-.87,6.34,6.34,0,0,1,2.09-.31c.31,0,.64,0,1,0a8.3,8.3,0,0,1,1,.14c.33.06.66.13,1,.22s.63.18.91.28l.13,3.72h-.72a5.44,5.44,0,0,0-.41-1.8,3.21,3.21,0,0,0-.77-1.1,2.65,2.65,0,0,0-1-.54,4.35,4.35,0,0,0-1.14-.15,4.3,4.3,0,0,0-1.36.19,2.66,2.66,0,0,0-1,.54,2.35,2.35,0,0,0-.57.87,3.13,3.13,0,0,0-.19,1.14,2.61,2.61,0,0,0,.27,1.26,2.7,2.7,0,0,0,.75.87,5.39,5.39,0,0,0,1.17.64c.46.19,1,.39,1.5.59s1,.4,1.47.61a5.49,5.49,0,0,1,1.3.81,3.74,3.74,0,0,1,.91,1.2,3.94,3.94,0,0,1,.35,1.77,4.59,4.59,0,0,1-.35,1.83,3.66,3.66,0,0,1-1,1.34,4.63,4.63,0,0,1-1.61.83,7.51,7.51,0,0,1-2.15.29c-.35,0-.71,0-1.09-.05s-.74-.09-1.1-.16-.73-.14-1.07-.23a8.06,8.06,0,0,1-1-.31Z" />
      <path class="cls-1" d="M215,190.05c0,.59,0,1.14.08,1.66a3.2,3.2,0,0,0,.42,1.36,2.4,2.4,0,0,0,1,.93,4.5,4.5,0,0,0,2,.35,4.93,4.93,0,0,0,2-.36,2.87,2.87,0,0,0,1.21-1,3.77,3.77,0,0,0,.57-1.47,11.53,11.53,0,0,0,.14-1.83v-8.93h-2.05V180h5v.82h-2v8.82a11.61,11.61,0,0,1-.22,2.42,4,4,0,0,1-.81,1.75,3.61,3.61,0,0,1-1.58,1.07,7.33,7.33,0,0,1-2.54.37,8.21,8.21,0,0,1-2.36-.3,3.87,3.87,0,0,1-1.63-.92,3.7,3.7,0,0,1-.94-1.6,7.76,7.76,0,0,1-.31-2.3v-9.31h-2.05V180h6.11v.82H215Z" />
      <path class="cls-1" d="M248.38,194.05v-13h0L243,195h-.81l-5-13.94h-.06v13H239v.82h-4.82v-.82h2.05V180.79h-2.05V180h4.75l4.27,11.86h0L247.78,180h4.65v.82h-2.05v13.26h2.05v.82h-5.89v-.82Z" />
      <path class="cls-1" d="M258.47,186.73h1.34c.46,0,.84,0,1.15,0a1.42,1.42,0,0,0,.74-.3,1.52,1.52,0,0,0,.43-.74,7.86,7.86,0,0,0,.2-1.44h.73v6.08h-.73a9,9,0,0,0-.17-1.48,1.76,1.76,0,0,0-.4-.81,1.32,1.32,0,0,0-.75-.35,7.89,7.89,0,0,0-1.2-.07h-1.34v6.48h2.71c.54,0,1,0,1.41-.06a4.29,4.29,0,0,0,1.05-.23,2.33,2.33,0,0,0,.78-.46,2.74,2.74,0,0,0,.56-.77,5.88,5.88,0,0,0,.4-1.15c.11-.45.21-1,.3-1.6h.72l-.2,5.09H254.41v-.82h2.06V180.79h-2.06V180h11.53l.21,4.11h-.72a9.87,9.87,0,0,0-.38-1.66,2.36,2.36,0,0,0-.63-1,2.13,2.13,0,0,0-1.06-.49,8.3,8.3,0,0,0-1.64-.13h-3.25Z" />
      <path class="cls-1" d="M277.72,180.79h-2.06v10.36a4.11,4.11,0,0,1-.28,1.5,4,4,0,0,1-.8,1.3,4,4,0,0,1-3,1.27,4.15,4.15,0,0,1-1.29-.2,3.84,3.84,0,0,1-1-.53,2.44,2.44,0,0,1-.68-.76,1.89,1.89,0,0,1-.25-.91,1.27,1.27,0,0,1,.11-.54,1.17,1.17,0,0,1,.66-.65,1.39,1.39,0,0,1,.46-.08,1.21,1.21,0,0,1,.48.09,1.19,1.19,0,0,1,.36.26,1.21,1.21,0,0,1,.23.38,1.33,1.33,0,0,1,.07.45,1.5,1.5,0,0,1-.16.67,1.71,1.71,0,0,1-.47.57,2.79,2.79,0,0,0,1.53.43,2.64,2.64,0,0,0,.81-.13,1.58,1.58,0,0,0,.65-.43,2.05,2.05,0,0,0,.43-.79,4,4,0,0,0,.16-1.18V180.79h-2.16V180h6.2Z" />
      <path class="cls-1" d="M279.19,187.56a10.21,10.21,0,0,1,.5-3.3,7.47,7.47,0,0,1,1.39-2.5,6,6,0,0,1,2.13-1.58,6.54,6.54,0,0,1,2.71-.56,6.37,6.37,0,0,1,2.65.54,5.84,5.84,0,0,1,2.05,1.53,7.45,7.45,0,0,1,1.32,2.41,10.15,10.15,0,0,1,.46,3.17,10.4,10.4,0,0,1-.46,3.18,7.35,7.35,0,0,1-1.31,2.52,6,6,0,0,1-2.11,1.65,6.9,6.9,0,0,1-5.49.06,5.7,5.7,0,0,1-2-1.52,7.05,7.05,0,0,1-1.32-2.42A10.21,10.21,0,0,1,279.19,187.56Zm2.23-.06a17.78,17.78,0,0,0,.15,2.47,9.55,9.55,0,0,0,.42,1.83,4.38,4.38,0,0,0,.66,1.26,3.11,3.11,0,0,0,.87.8,3.21,3.21,0,0,0,1.05.42,5.65,5.65,0,0,0,1.19.12,5.79,5.79,0,0,0,1.19-.12,3.27,3.27,0,0,0,1.06-.42,3.12,3.12,0,0,0,.89-.82,4.6,4.6,0,0,0,.69-1.29,10.16,10.16,0,0,0,.43-1.87,18.46,18.46,0,0,0,.16-2.53,17.78,17.78,0,0,0-.15-2.47,9.55,9.55,0,0,0-.42-1.83,4.31,4.31,0,0,0-.66-1.27,3.31,3.31,0,0,0-.87-.81,3.47,3.47,0,0,0-1-.41,5.72,5.72,0,0,0-1.19-.12,5.81,5.81,0,0,0-1.2.12,3.69,3.69,0,0,0-1.07.43,3.2,3.2,0,0,0-.89.81,4.81,4.81,0,0,0-.68,1.3,9.81,9.81,0,0,0-.44,1.86A18.87,18.87,0,0,0,281.42,187.5Z" />
      <path class="cls-1" d="M299.73,180a12.55,12.55,0,0,1,2.74.25,5.35,5.35,0,0,1,1.81.69,2.63,2.63,0,0,1,1,1.1,3.28,3.28,0,0,1,.3,1.42,3.9,3.9,0,0,1-.21,1.28,3.31,3.31,0,0,1-.63,1.09,3.88,3.88,0,0,1-1.05.85,5.17,5.17,0,0,1-1.48.54v0a3.35,3.35,0,0,1,1.16.48,2.62,2.62,0,0,1,.74.78,4.14,4.14,0,0,1,.44,1c.11.4.2.83.28,1.3s.16.93.22,1.33a5.71,5.71,0,0,0,.26,1,1.62,1.62,0,0,0,.45.68,1.17,1.17,0,0,0,.78.24h.27l.37,0v.79l-.38.07-.41,0-.41,0h-.36a4.07,4.07,0,0,1-1.4-.19,1.51,1.51,0,0,1-.78-.59,2.52,2.52,0,0,1-.38-1c-.08-.4-.15-.88-.22-1.44-.1-.8-.2-1.48-.3-2a4.63,4.63,0,0,0-.44-1.32,1.56,1.56,0,0,0-.74-.7,3.27,3.27,0,0,0-1.29-.21h-1.92v6.53h2.15v.82h-6.2v-.82h2.05V180.79h-2.05V180Zm-1.6,6.73h1.36a7.91,7.91,0,0,0,1.85-.19,2.7,2.7,0,0,0,1.2-.58,2.13,2.13,0,0,0,.65-1,5.25,5.25,0,0,0,.19-1.47,4,4,0,0,0-.16-1.23,1.54,1.54,0,0,0-.57-.82,2.67,2.67,0,0,0-1.14-.47,9.9,9.9,0,0,0-1.91-.15h-1.47Z" />
      <path class="cls-1" d="M316.67,187.56a10.22,10.22,0,0,1,.49-3.3,7.65,7.65,0,0,1,1.39-2.5,6,6,0,0,1,2.13-1.58,6.57,6.57,0,0,1,2.71-.56,6.34,6.34,0,0,1,2.65.54,5.84,5.84,0,0,1,2,1.53,7.1,7.1,0,0,1,1.32,2.41,10.15,10.15,0,0,1,.46,3.17,10.72,10.72,0,0,1-.45,3.18A7.55,7.55,0,0,1,328.1,193a5.88,5.88,0,0,1-2.11,1.65,6.9,6.9,0,0,1-5.49.06,5.7,5.7,0,0,1-2.05-1.52,7.05,7.05,0,0,1-1.32-2.42A10.22,10.22,0,0,1,316.67,187.56Zm2.22-.06A17.78,17.78,0,0,0,319,190a9.55,9.55,0,0,0,.42,1.83,4.38,4.38,0,0,0,.66,1.26,3.11,3.11,0,0,0,.87.8,3.21,3.21,0,0,0,1.05.42,6,6,0,0,0,2.38,0,3.2,3.2,0,0,0,2-1.24,4.87,4.87,0,0,0,.68-1.29,10.11,10.11,0,0,0,.44-1.87,18.6,18.6,0,0,0,.15-2.53,17.78,17.78,0,0,0-.15-2.47,9.55,9.55,0,0,0-.42-1.83,4.31,4.31,0,0,0-.66-1.27,3.31,3.31,0,0,0-.87-.81,3.37,3.37,0,0,0-1-.41,5.65,5.65,0,0,0-1.19-.12,5.81,5.81,0,0,0-1.2.12,3.53,3.53,0,0,0-1.06.43,3.1,3.1,0,0,0-.9.81,5.1,5.1,0,0,0-.68,1.3,9.13,9.13,0,0,0-.43,1.86A17.23,17.23,0,0,0,318.89,187.5Z" />
      <path class="cls-1" d="M337.15,180a11.1,11.1,0,0,1,2.86.31,5.32,5.32,0,0,1,1.87.85,3.15,3.15,0,0,1,1,1.32,4.32,4.32,0,0,1,.32,1.67,5,5,0,0,1-.29,1.68,3.48,3.48,0,0,1-1,1.47,5.17,5.17,0,0,1-1.91,1,9.82,9.82,0,0,1-3,.39H335.6v5.35h2.15v.82h-6.2v-.82h2.05V180.79h-2.05V180Zm-1.55,7.91h1.26a9.16,9.16,0,0,0,2-.18,2.88,2.88,0,0,0,1.29-.61,2.42,2.42,0,0,0,.69-1.15,6.38,6.38,0,0,0,.21-1.78,6.08,6.08,0,0,0-.16-1.51,2,2,0,0,0-.6-1.05,2.65,2.65,0,0,0-1.22-.61,8.61,8.61,0,0,0-2-.2H335.6Z" />
      <path class="cls-1" d="M356.8,190.41l-.14,4.06a9.49,9.49,0,0,1-1.06.31c-.38.09-.76.17-1.15.24l-1.16.15c-.38,0-.73.05-1.06.05a7.06,7.06,0,0,1-2.82-.54,5.85,5.85,0,0,1-2.14-1.52,6.83,6.83,0,0,1-1.34-2.4,11,11,0,0,1,0-6.47,7,7,0,0,1,1.4-2.51,6.19,6.19,0,0,1,2.21-1.6,7.32,7.32,0,0,1,2.9-.56c.3,0,.62,0,.95,0s.68.07,1,.13.69.13,1,.21.66.18,1,.28l.12,3.74h-.72a5.93,5.93,0,0,0-.4-1.82,2.88,2.88,0,0,0-.79-1.09,2.53,2.53,0,0,0-1.06-.53,5.2,5.2,0,0,0-1.27-.15,6.62,6.62,0,0,0-1.28.12,3.64,3.64,0,0,0-1.12.44,3.13,3.13,0,0,0-.93.82,4.32,4.32,0,0,0-.71,1.3,9.2,9.2,0,0,0-.44,1.87,17,17,0,0,0-.16,2.52,17.83,17.83,0,0,0,.15,2.48,8.78,8.78,0,0,0,.44,1.83,4.34,4.34,0,0,0,.69,1.27,3.51,3.51,0,0,0,.9.79,3.34,3.34,0,0,0,1.08.4,6.11,6.11,0,0,0,1.23.12,5.46,5.46,0,0,0,1.44-.18,2.9,2.9,0,0,0,1.17-.63,3.39,3.39,0,0,0,.84-1.22,6.81,6.81,0,0,0,.46-2Z" />
      <path class="cls-1" d="M363.16,180.79v13.26h2v.82h-6.1v-.82h2.05V180.79h-2.05V180h6.1v.82Z" />
      <path class="cls-1" d="M366.85,187.56a10.22,10.22,0,0,1,.49-3.3,7.65,7.65,0,0,1,1.39-2.5,6,6,0,0,1,2.13-1.58,6.54,6.54,0,0,1,2.71-.56,6.34,6.34,0,0,1,2.65.54,5.84,5.84,0,0,1,2,1.53,7.1,7.1,0,0,1,1.32,2.41,10.15,10.15,0,0,1,.46,3.17,10.72,10.72,0,0,1-.45,3.18,7.55,7.55,0,0,1-1.32,2.52,6,6,0,0,1-2.11,1.65,6.9,6.9,0,0,1-5.49.06,5.7,5.7,0,0,1-2.05-1.52,7.05,7.05,0,0,1-1.32-2.42A10.22,10.22,0,0,1,366.85,187.56Zm2.22-.06a17.78,17.78,0,0,0,.15,2.47,9.55,9.55,0,0,0,.42,1.83,4.38,4.38,0,0,0,.66,1.26,3.11,3.11,0,0,0,.87.8,3.21,3.21,0,0,0,1.05.42,6,6,0,0,0,2.38,0,3.28,3.28,0,0,0,2-1.24,4.87,4.87,0,0,0,.68-1.29,9.4,9.4,0,0,0,.43-1.87,17,17,0,0,0,.16-2.53,17.78,17.78,0,0,0-.15-2.47,9.55,9.55,0,0,0-.42-1.83,4.31,4.31,0,0,0-.66-1.27,3.31,3.31,0,0,0-.87-.81,3.37,3.37,0,0,0-1-.41,5.72,5.72,0,0,0-1.19-.12,5.81,5.81,0,0,0-1.2.12,3.69,3.69,0,0,0-1.07.43,3.2,3.2,0,0,0-.89.81,5.1,5.1,0,0,0-.68,1.3,9.13,9.13,0,0,0-.43,1.86A17.23,17.23,0,0,0,369.07,187.5Zm2.93-8.42a1.33,1.33,0,0,1-.39-.49l3.54-3.44a3.89,3.89,0,0,1,.62.6,5.53,5.53,0,0,1,.53.74Z" />
      <path class="cls-1" d="M394.34,195h-.82l-8.87-13.75h0v12.77h1.85v.82h-4.82v-.82h2.05V180.79h-2.05V180h4.58l7.16,11.09h.05V180.79h-2.05V180h5v.82h-2.05Z" />
      <path class="cls-1" d="M400.65,195.28a2.12,2.12,0,0,1-.83-.16,1.87,1.87,0,0,1-.66-.42,2,2,0,0,1-.44-.65,2.1,2.1,0,0,1-.16-.84,2.13,2.13,0,0,1,.16-.84,1.93,1.93,0,0,1,.45-.67,2,2,0,0,1,.66-.43,2.25,2.25,0,0,1,.82-.15,2.12,2.12,0,0,1,.81.15,2.09,2.09,0,0,1,.66.43,2,2,0,0,1,.45.65,2,2,0,0,1,.16.83,2.08,2.08,0,0,1-.16.85,2,2,0,0,1-1.11,1.09A2,2,0,0,1,400.65,195.28Z" />
      <path class="cls-3" d="M15.85,95.28a31.64,31.64,0,0,1,8,.87,14.67,14.67,0,0,1,5.26,2.4A9,9,0,0,1,32,102.24a12.23,12.23,0,0,1,.88,4.71,14.11,14.11,0,0,1-.81,4.72,9.94,9.94,0,0,1-2.81,4.12,14.61,14.61,0,0,1-5.35,2.91,27.7,27.7,0,0,1-8.46,1.1h-4v15h6.05v2.3H.13v-2.3H5.89V97.59H.13V95.28ZM11.5,117.49h3.55a25.85,25.85,0,0,0,5.57-.5,8,8,0,0,0,3.62-1.71,6.76,6.76,0,0,0,1.94-3.22,17.7,17.7,0,0,0,.59-5,18.17,18.17,0,0,0-.44-4.26,5.93,5.93,0,0,0-1.69-3,7.63,7.63,0,0,0-3.44-1.72,24.62,24.62,0,0,0-5.69-.54h-4Z" />
      <path class="cls-3" d="M51.5,135.53q1.57,0,2.76-.12a8.61,8.61,0,0,0,2.09-.46,4.64,4.64,0,0,0,1.54-.92A5.27,5.27,0,0,0,59,132.48a11.88,11.88,0,0,0,.8-2.31,31.9,31.9,0,0,0,.59-3.23H61.8l-.44,10.2H38.79v-1.61h4V109.45h-4v-1.61h12v1.61h-4v26.08Z" />
      <path class="cls-3" d="M66.82,122.76a19.93,19.93,0,0,1,1-6.49,14.5,14.5,0,0,1,2.73-4.91,12,12,0,0,1,4.18-3.12,13,13,0,0,1,5.34-1.09,12.63,12.63,0,0,1,5.21,1.06,11.29,11.29,0,0,1,4,3A13.7,13.7,0,0,1,91.87,116a19.85,19.85,0,0,1,.92,6.23,20.86,20.86,0,0,1-.9,6.26,14.49,14.49,0,0,1-2.59,4.95,12,12,0,0,1-4.14,3.25,13.7,13.7,0,0,1-10.8.12,11.18,11.18,0,0,1-4-3,13.84,13.84,0,0,1-2.6-4.75A20,20,0,0,1,66.82,122.76Zm4.37-.12a34.6,34.6,0,0,0,.3,4.87,18.57,18.57,0,0,0,.82,3.59,9.08,9.08,0,0,0,1.3,2.49,6.5,6.5,0,0,0,1.72,1.57,6.21,6.21,0,0,0,2,.82,12.07,12.07,0,0,0,4.69,0,6.31,6.31,0,0,0,2.09-.83,6.42,6.42,0,0,0,1.75-1.6A9,9,0,0,0,87.26,131a18.61,18.61,0,0,0,.85-3.67,36,36,0,0,0,.31-5,34.6,34.6,0,0,0-.3-4.87,18.86,18.86,0,0,0-.82-3.6,9,9,0,0,0-1.3-2.5,6.62,6.62,0,0,0-1.71-1.57,6.13,6.13,0,0,0-2.05-.82,11.06,11.06,0,0,0-2.34-.23,11.21,11.21,0,0,0-2.35.24,6.64,6.64,0,0,0-2.1.83,6.43,6.43,0,0,0-1.76,1.6A9.53,9.53,0,0,0,72.35,114a18.45,18.45,0,0,0-.85,3.67A34.63,34.63,0,0,0,71.19,122.64Z" />
      <path class="cls-3" d="M124.44,135.53V110h-.11l-10.48,27.46h-1.6L102.41,110h-.1v25.51h3.63v1.61H96.47v-1.61h4V109.45h-4v-1.61h9.33l8.41,23.33h.08l9-23.33h9.15v1.61h-4v26.08h4v1.61H120.81v-1.61Z" />
      <path class="cls-3" d="M144.81,121.13h2.64a20.44,20.44,0,0,0,2.26-.1,2.64,2.64,0,0,0,1.46-.58A2.81,2.81,0,0,0,152,119a14,14,0,0,0,.41-2.81h1.43v11.94h-1.43a18.66,18.66,0,0,0-.34-2.9,3.34,3.34,0,0,0-.79-1.6,2.6,2.6,0,0,0-1.46-.69,16.73,16.73,0,0,0-2.37-.14h-2.64v12.75h5.34q1.57,0,2.76-.12A8.33,8.33,0,0,0,155,135a4.35,4.35,0,0,0,1.52-.9,5.22,5.22,0,0,0,1.1-1.52,11,11,0,0,0,.79-2.26c.21-.88.41-1.93.6-3.14h1.41l-.4,10H136.84v-1.61h4V109.45h-4v-1.61h22.67l.4,8.09H158.5a17.71,17.71,0,0,0-.75-3.28,4.67,4.67,0,0,0-1.24-2,4.34,4.34,0,0,0-2.07-1,18.06,18.06,0,0,0-3.24-.25h-6.39Z" />
      <path class="cls-3" d="M176.48,107.84a25.78,25.78,0,0,1,5.4.48,10.78,10.78,0,0,1,3.55,1.37,5.27,5.27,0,0,1,1.94,2.15,6.56,6.56,0,0,1,.58,2.8,7.83,7.83,0,0,1-.41,2.52,6.71,6.71,0,0,1-1.24,2.15,7.52,7.52,0,0,1-2.07,1.67,10.94,10.94,0,0,1-2.91,1.06v.08a6.55,6.55,0,0,1,2.28.94,5.1,5.1,0,0,1,1.46,1.54,7.5,7.5,0,0,1,.86,2.06c.21.78.4,1.63.56,2.56s.3,1.82.43,2.61a10.49,10.49,0,0,0,.52,2,3,3,0,0,0,.87,1.33,2.3,2.3,0,0,0,1.55.48l.51,0c.22,0,.47,0,.74-.08v1.55c-.23,0-.48.1-.75.14s-.54.07-.82.09-.54,0-.8,0H188a8.06,8.06,0,0,1-2.75-.37,3.08,3.08,0,0,1-1.53-1.16,5.09,5.09,0,0,1-.76-2q-.23-1.19-.42-2.82c-.21-1.59-.41-2.92-.61-4a8.36,8.36,0,0,0-.85-2.59,3.11,3.11,0,0,0-1.47-1.4,6.42,6.42,0,0,0-2.52-.41h-3.79v12.85h4.23v1.61h-12.2v-1.61h4V109.45h-4v-1.61Zm-3.15,13.23H176a14.94,14.94,0,0,0,3.64-.37,5.65,5.65,0,0,0,2.36-1.13,4.22,4.22,0,0,0,1.27-2,9.74,9.74,0,0,0,.38-2.89,8.35,8.35,0,0,0-.31-2.41,3.11,3.11,0,0,0-1.12-1.63,5.58,5.58,0,0,0-2.26-.92,19.81,19.81,0,0,0-3.74-.29h-2.9Z" />
      <path class="cls-3" d="m203.22 109.45v26.08h4v1.61h-12v-1.61h4v-26.08h-4v-1.61h12v1.61z" />
      <path class="cls-3" d="M220.52,135.53v1.61H210.7v-1.61h3.83l10.49-28h1.59l9.84,28h4v1.61H228v-1.61h4.2l-3-8.61h-9.52l-3.2,8.61Zm4-21.62-4.25,11.37h8.33l-4-11.37Z" />
      <path class="cls-4" d="M293.07,124.61,292.66,136c-.92.32-1.91.62-3,.88s-2.14.48-3.24.66-2.17.32-3.24.42-2.06.14-3,.14a20.11,20.11,0,0,1-7.94-1.5,16.45,16.45,0,0,1-6-4.28,18.94,18.94,0,0,1-3.77-6.75,28.36,28.36,0,0,1-1.32-9,28.93,28.93,0,0,1,1.39-9.22,20.27,20.27,0,0,1,3.94-7,17.24,17.24,0,0,1,6.21-4.5,20.51,20.51,0,0,1,8.14-1.57c.85,0,1.74,0,2.68.13s1.9.21,2.87.38,1.93.36,2.88.59,1.87.49,2.75.77l.34,10.52h-2a15.73,15.73,0,0,0-1.14-5.11,8.29,8.29,0,0,0-2.2-3.07,7.45,7.45,0,0,0-3-1.5,14.94,14.94,0,0,0-3.54-.4,18,18,0,0,0-3.6.34,10.16,10.16,0,0,0-3.16,1.21,10,10,0,0,0-2.62,2.31,12.38,12.38,0,0,0-2,3.66,27,27,0,0,0-1.26,5.25,57,57,0,0,0,0,14.06,25.75,25.75,0,0,0,1.22,5.14,12.18,12.18,0,0,0,1.93,3.56,9.6,9.6,0,0,0,2.54,2.22,9.36,9.36,0,0,0,3,1.14,18.21,18.21,0,0,0,3.45.32,15.28,15.28,0,0,0,4.05-.51,8,8,0,0,0,3.29-1.77,9.75,9.75,0,0,0,2.36-3.43,19,19,0,0,0,1.28-5.5Z" />
      <path class="cls-4" d="M308.48,135.53v1.61h-9.82v-1.61h3.83l10.49-28h1.59l9.84,28h4v1.61H316v-1.61h4.2l-3-8.61h-9.52l-3.2,8.61Zm4-21.62-4.25,11.37h8.33l-4-11.37Z" />
      <path class="cls-4" d="M352.52,128.37l-.28,8a20,20,0,0,1-2.09.62c-.74.18-1.5.33-2.26.46s-1.53.23-2.27.3-1.44.1-2.09.1a14,14,0,0,1-5.55-1.05,11.55,11.55,0,0,1-4.2-3,13.18,13.18,0,0,1-2.64-4.73,21.88,21.88,0,0,1,.05-12.72A14.25,14.25,0,0,1,334,111.4a12.12,12.12,0,0,1,4.35-3.15,14.29,14.29,0,0,1,5.69-1.1c.6,0,1.22,0,1.88.09s1.33.15,2,.27,1.35.25,2,.41,1.31.34,1.93.54l.24,7.37h-1.41a11.1,11.1,0,0,0-.8-3.58,5.75,5.75,0,0,0-1.54-2.15,5.2,5.2,0,0,0-2.1-1,10.41,10.41,0,0,0-2.48-.28,12.75,12.75,0,0,0-2.52.24,6.9,6.9,0,0,0-2.21.85,6.76,6.76,0,0,0-1.83,1.61,8.47,8.47,0,0,0-1.38,2.56,18.78,18.78,0,0,0-.88,3.68,34.29,34.29,0,0,0-.31,5,34.8,34.8,0,0,0,.3,4.89,18,18,0,0,0,.86,3.6,8.59,8.59,0,0,0,1.35,2.49,6.59,6.59,0,0,0,1.77,1.55,6.52,6.52,0,0,0,2.13.8,12.59,12.59,0,0,0,2.42.22,10.55,10.55,0,0,0,2.83-.35,5.66,5.66,0,0,0,2.3-1.24,6.69,6.69,0,0,0,1.66-2.4,13.42,13.42,0,0,0,.89-3.85Z" />
      <path class="cls-4" d="M361.61,135.53V109.45h-4v-1.61h12v1.61h-4v11.68H379V109.45h-4v-1.61h12v1.61h-4v26.08h4v1.61H375v-1.61h4V122.78H365.55v12.75h4v1.61h-12v-1.61Z" />
      <path class="cls-4" d="M390.79,122.76a20.2,20.2,0,0,1,1-6.49,14.5,14.5,0,0,1,2.73-4.91,12,12,0,0,1,4.19-3.12,13,13,0,0,1,5.33-1.09,12.6,12.6,0,0,1,5.21,1.06,11.41,11.41,0,0,1,4,3,13.87,13.87,0,0,1,2.59,4.74,19.85,19.85,0,0,1,.92,6.23,20.86,20.86,0,0,1-.9,6.26,14.67,14.67,0,0,1-2.59,4.95,11.92,11.92,0,0,1-4.15,3.25,12.67,12.67,0,0,1-5.53,1.17,12.85,12.85,0,0,1-5.27-1.05,11.27,11.27,0,0,1-4-3,13.82,13.82,0,0,1-2.59-4.75A20,20,0,0,1,390.79,122.76Zm4.38-.12a36.32,36.32,0,0,0,.29,4.87,18.52,18.52,0,0,0,.83,3.59,8.81,8.81,0,0,0,1.3,2.49,6.46,6.46,0,0,0,1.71,1.57,6.26,6.26,0,0,0,2.06.82,11.06,11.06,0,0,0,2.34.23,11.22,11.22,0,0,0,2.35-.23,6.4,6.4,0,0,0,2.09-.83,6.72,6.72,0,0,0,1.75-1.6,9.23,9.23,0,0,0,1.34-2.55,18.57,18.57,0,0,0,.86-3.67,41.18,41.18,0,0,0,0-9.84,18.81,18.81,0,0,0-.83-3.6,9,9,0,0,0-1.3-2.5,6.58,6.58,0,0,0-1.7-1.57,6.21,6.21,0,0,0-2-.82,11.06,11.06,0,0,0-2.34-.23,11.31,11.31,0,0,0-2.36.24,6.83,6.83,0,0,0-2.1.83,6.4,6.4,0,0,0-1.75,1.6,9.25,9.25,0,0,0-1.34,2.55,18.4,18.4,0,0,0-.86,3.67A36.28,36.28,0,0,0,395.17,122.64Z" />
      <path class="cls-2" d="M5.83,157.07l12.69-.64,12.69-.49L56.59,155,82,154.28c8.46-.23,16.92-.35,25.38-.53L120,153.5l12.69-.15,25.38-.3,50.76-.23,50.76.24c16.92.23,33.84.31,50.76.71,8.46.18,16.92.29,25.38.53l25.38.7,25.38.95,12.69.48,12.69.64v.5l-203,.25-203-.25Z" />
    </g>
  </g>
</svg>